<?xml version="1.0" encoding="UTF-8"?>
<svg version="1.1" xmlns="http://www.w3.org/2000/svg" width="581" height="581">
<path d="M0 0 C1.14900787 -0.00101212 1.14900787 -0.00101212 2.32122803 -0.00204468 C32.70791191 0.04010543 62.56906098 4.94744726 91.5 14.25 C92.36093262 14.52650391 93.22186523 14.80300781 94.10888672 15.08789062 C117.64106246 22.80850077 139.61120763 34.02936875 160.5 47.25 C161.97452583 48.17825125 163.44975972 49.10537893 164.92578125 50.03125 C165.56555908 50.43408203 166.20533691 50.83691406 166.86450195 51.25195312 C168.53250621 52.30132304 168.53250621 52.30132304 170.5 53.25 C171.11875 53.91 171.7375 54.57 172.375 55.25 C174.29151695 57.38796673 174.29151695 57.38796673 176.625 57.75 C177.24375 57.915 177.8625 58.08 178.5 58.25 C178.9021875 59.12591797 178.9021875 59.12591797 179.3125 60.01953125 C180.85588282 62.91845096 182.80653159 64.40635214 185.375 66.4375 C186.23867188 67.13230469 187.10234375 67.82710938 187.9921875 68.54296875 C190.30382527 70.35498462 190.30382527 70.35498462 192.6328125 70.67578125 C194.5 71.25 194.5 71.25 195.81787109 73.47045898 C197.67175966 76.53381477 199.75443943 78.76331855 202.28125 81.296875 C203.20550781 82.22371094 204.12976563 83.15054688 205.08203125 84.10546875 C205.5610791 84.58032715 206.04012695 85.05518555 206.53369141 85.54443359 C208.00271828 87.00269837 209.4607042 88.47139738 210.91796875 89.94140625 C212.30435547 91.32392578 212.30435547 91.32392578 213.71875 92.734375 C214.56373047 93.57709961 215.40871094 94.41982422 216.27929688 95.28808594 C218.42645615 97.44277716 218.42645615 97.44277716 221.5 98.25 C221.62375 98.86875 221.7475 99.4875 221.875 100.125 C222.78540293 103.22036997 224.76642661 103.68795807 227.5 105.25 C229.36767828 107.31778666 230.37440204 108.63995275 230.9375 111.375 C231.123125 111.99375 231.30875 112.6125 231.5 113.25 C232.4590625 113.7140625 232.4590625 113.7140625 233.4375 114.1875 C236.27422403 115.64884268 236.34417214 117.3264354 237.5 120.25 C238.2425 120.9925 238.985 121.735 239.75 122.5 C243.44667759 126.19667759 247.82826494 131.02193986 248.921875 136.27734375 C249.37279436 138.40625486 249.37279436 138.40625486 251.265625 139.99609375 C254.31446758 143.07158705 256.17628431 146.53347673 258.25 150.3125 C258.68175537 151.09383301 259.11351074 151.87516602 259.55834961 152.68017578 C265.64264787 163.93182238 271.05131388 175.65675712 273.5 188.25 C274.16 188.25 274.82 188.25 275.5 188.25 C276.19848264 190.18356782 276.88344814 192.12202298 277.5625 194.0625 C277.94535156 195.14144531 278.32820312 196.22039062 278.72265625 197.33203125 C279.5 200.25 279.5 200.25 278.5 203.25 C279.38319294 206.40020361 279.38319294 206.40020361 280.5 209.25 C281.16 209.25 281.82 209.25 282.5 209.25 C282.5 211.56 282.5 213.87 282.5 216.25 C283.16 216.25 283.82 216.25 284.5 216.25 C284.17 217.9 283.84 219.55 283.5 221.25 C284.16 221.25 284.82 221.25 285.5 221.25 C285.88063221 223.5760857 286.21269945 225.91055264 286.5 228.25 C286.17 228.58 285.84 228.91 285.5 229.25 C285.75159066 231.36534439 285.75159066 231.36534439 286.3125 233.75 C286.48394531 234.5646875 286.65539062 235.379375 286.83203125 236.21875 C287.16267578 237.22421875 287.16267578 237.22421875 287.5 238.25 C288.16 238.58 288.82 238.91 289.5 239.25 C289.5 243.21 289.5 247.17 289.5 251.25 C290.16 251.25 290.82 251.25 291.5 251.25 C291.5 277.32 291.5 303.39 291.5 330.25 C290.84 330.25 290.18 330.25 289.5 330.25 C289.5 334.21 289.5 338.17 289.5 342.25 C288.51 342.745 288.51 342.745 287.5 343.25 C286.76886688 345.45959318 286.76886688 345.45959318 286.3125 348.0625 C286.13332031 348.93519531 285.95414063 349.80789063 285.76953125 350.70703125 C285.35052071 353.20510287 285.35052071 353.20510287 286.07421875 355.38671875 C286.21472656 356.00160156 286.35523438 356.61648438 286.5 357.25 C285.84 358.24 285.18 359.23 284.5 360.25 C284.5 360.58 284.5 360.91 284.5 361.25 C283.94175622 363.64247333 283.27848594 365.91454217 282.5 368.25 C282.355625 368.91 282.21125 369.57 282.0625 370.25 C281.5 372.25 281.5 372.25 279.5 375.25 C279.5 376.57 279.5 377.89 279.5 379.25 C279.0937025 381.11625985 278.63115099 382.97081201 278.125 384.8125 C277.86976563 385.76253906 277.61453125 386.71257812 277.3515625 387.69140625 C276.5 390.25 276.5 390.25 274.5 393.25 C272.80846555 396.2350608 272.15401819 398.89815675 271.5 402.25 C270.86562656 403.9292238 270.20710678 405.60008418 269.5 407.25 C268.84 407.25 268.18 407.25 267.5 407.25 C267.40847656 408.24773437 267.31695313 409.24546875 267.22265625 410.2734375 C266.60002935 414.58526411 264.94327823 418.04312193 262.9375 421.875 C262.40938721 422.90463867 262.40938721 422.90463867 261.87060547 423.95507812 C258.44094672 430.54367311 254.88204056 437.24269557 250.5 443.25 C249.84 443.25 249.18 443.25 248.5 443.25 C248.41621094 443.94609375 248.33242188 444.6421875 248.24609375 445.359375 C247.3141518 448.97004016 245.65800675 451.42305338 243.5625 454.5 C242.85222656 455.55703125 242.14195312 456.6140625 241.41015625 457.703125 C239.5 460.25 239.5 460.25 237.5 461.25 C237.231875 462.03375 236.96375 462.8175 236.6875 463.625 C235.20652498 466.89873425 233.52851014 467.46395556 230.5 469.25 C230.14587656 470.57796291 229.81478446 471.91216607 229.5 473.25 C227.36107381 475.55778879 225.11941659 477.67646612 222.8125 479.8125 C221.37964725 481.23350271 221.37964725 481.23350271 220.5625 483.3125 C219.5 485.25 219.5 485.25 217.72705078 486.09423828 C214.90813303 487.55715833 213.05288315 489.43779815 210.8046875 491.6796875 C209.92425781 492.55753906 209.04382813 493.43539063 208.13671875 494.33984375 C207.22535156 495.25894531 206.31398438 496.17804688 205.375 497.125 C204.45589844 498.03636719 203.53679687 498.94773437 202.58984375 499.88671875 C201.71199219 500.76714844 200.83414062 501.64757812 199.9296875 502.5546875 C199.12772949 503.35890137 198.32577148 504.16311523 197.49951172 504.99169922 C195.68376938 507.04244606 194.67103823 508.81122287 193.5 511.25 C192.17291637 511.60740442 190.83801809 511.93599926 189.5 512.25 C186.65824507 514.217667 186.65824507 514.217667 183.8125 516.625 C182.83925781 517.41648437 181.86601562 518.20796875 180.86328125 519.0234375 C178.28752035 521.09802891 178.28752035 521.09802891 177.5 524.25 C176.17203709 524.60412344 174.83783393 524.93521554 173.5 525.25 C172.47895449 526.22850195 171.4793879 527.22980427 170.5 528.25 C169.17182452 528.92688412 167.83768349 529.59210555 166.5 530.25 C165.12085559 531.09349836 163.75300552 531.95563155 162.39453125 532.83203125 C141.77900617 545.9708716 120.58914249 557.12746149 97.5 565.25 C96.58653809 565.57194336 95.67307617 565.89388672 94.73193359 566.22558594 C80.88189689 571.02824285 66.87868507 574.44627446 52.5 577.25 C51.38625 577.47429688 50.2725 577.69859375 49.125 577.9296875 C46.25518388 578.45962513 43.39435813 578.8759487 40.5 579.25 C39.86239746 579.33878418 39.22479492 579.42756836 38.56787109 579.51904297 C-4.30010733 585.29254086 -48.51162279 580.62893288 -89.5 567.25 C-90.85738281 566.81179932 -90.85738281 566.81179932 -92.2421875 566.36474609 C-115.72688614 558.65989297 -137.65358716 547.44380901 -158.5 534.25 C-159.97452583 533.32174875 -161.44975972 532.39462107 -162.92578125 531.46875 C-163.56555908 531.06591797 -164.20533691 530.66308594 -164.86450195 530.24804688 C-166.53250621 529.19867696 -166.53250621 529.19867696 -168.5 528.25 C-169.11875 527.59 -169.7375 526.93 -170.375 526.25 C-172.29151695 524.11203327 -172.29151695 524.11203327 -174.625 523.75 C-175.24375 523.585 -175.8625 523.42 -176.5 523.25 C-176.768125 522.66605469 -177.03625 522.08210937 -177.3125 521.48046875 C-178.85588282 518.58154904 -180.80653159 517.09364786 -183.375 515.0625 C-184.67050781 514.02029297 -184.67050781 514.02029297 -185.9921875 512.95703125 C-188.30382527 511.14501538 -188.30382527 511.14501538 -190.6328125 510.82421875 C-192.5 510.25 -192.5 510.25 -193.83374023 508.01367188 C-195.61984015 505.05123216 -197.58751489 502.90376831 -200.02734375 500.45703125 C-200.90197266 499.57982422 -201.77660156 498.70261719 -202.67773438 497.79882812 C-203.58845703 496.89583984 -204.49917969 495.99285156 -205.4375 495.0625 C-206.34435547 494.14791016 -207.25121094 493.23332031 -208.18554688 492.29101562 C-209.06146484 491.41767578 -209.93738281 490.54433594 -210.83984375 489.64453125 C-212.03661743 488.45114136 -212.03661743 488.45114136 -213.25756836 487.23364258 C-215.30120547 485.42585254 -217.07841428 484.430655 -219.5 483.25 C-219.644375 482.610625 -219.78875 481.97125 -219.9375 481.3125 C-220.32193215 478.98858989 -220.32193215 478.98858989 -222.875 477.75 C-223.74125 477.255 -224.6075 476.76 -225.5 476.25 C-227.36767828 474.18221334 -228.37440204 472.86004725 -228.9375 470.125 C-229.123125 469.50625 -229.30875 468.8875 -229.5 468.25 C-230.139375 467.940625 -230.77875 467.63125 -231.4375 467.3125 C-234.27422403 465.85115732 -234.34417214 464.1735646 -235.5 461.25 C-236.61375 460.13625 -236.61375 460.13625 -237.75 459 C-241.44667759 455.30332241 -245.82826494 450.47806014 -246.921875 445.22265625 C-247.37279436 443.09374514 -247.37279436 443.09374514 -249.265625 441.50390625 C-252.31446758 438.42841295 -254.17628431 434.96652327 -256.25 431.1875 C-256.68175537 430.40616699 -257.11351074 429.62483398 -257.55834961 428.81982422 C-263.64264787 417.56817762 -269.05131388 405.84324288 -271.5 393.25 C-272.16 393.25 -272.82 393.25 -273.5 393.25 C-274.19848264 391.31643218 -274.88344814 389.37797702 -275.5625 387.4375 C-275.94535156 386.35855469 -276.32820313 385.27960938 -276.72265625 384.16796875 C-277.5 381.25 -277.5 381.25 -276.5 378.25 C-277.38319294 375.09979639 -277.38319294 375.09979639 -278.5 372.25 C-279.16 372.25 -279.82 372.25 -280.5 372.25 C-280.5 369.94 -280.5 367.63 -280.5 365.25 C-281.16 365.25 -281.82 365.25 -282.5 365.25 C-282.17 363.6 -281.84 361.95 -281.5 360.25 C-282.16 360.25 -282.82 360.25 -283.5 360.25 C-283.88063221 357.9239143 -284.21269945 355.58944736 -284.5 353.25 C-284.17 352.92 -283.84 352.59 -283.5 352.25 C-283.75159066 350.13465561 -283.75159066 350.13465561 -284.3125 347.75 C-284.48394531 346.9353125 -284.65539062 346.120625 -284.83203125 345.28125 C-285.05246094 344.6109375 -285.27289063 343.940625 -285.5 343.25 C-286.16 342.92 -286.82 342.59 -287.5 342.25 C-287.5 338.29 -287.5 334.33 -287.5 330.25 C-288.16 330.25 -288.82 330.25 -289.5 330.25 C-289.5 304.18 -289.5 278.11 -289.5 251.25 C-288.84 251.25 -288.18 251.25 -287.5 251.25 C-287.5 247.29 -287.5 243.33 -287.5 239.25 C-286.84 238.92 -286.18 238.59 -285.5 238.25 C-284.76886688 236.04040682 -284.76886688 236.04040682 -284.3125 233.4375 C-284.13332031 232.56480469 -283.95414062 231.69210938 -283.76953125 230.79296875 C-283.35052071 228.29489713 -283.35052071 228.29489713 -284.07421875 226.11328125 C-284.21472656 225.49839844 -284.35523438 224.88351563 -284.5 224.25 C-283.84 223.26 -283.18 222.27 -282.5 221.25 C-282.5 220.92 -282.5 220.59 -282.5 220.25 C-281.94175622 217.85752667 -281.27848594 215.58545783 -280.5 213.25 C-280.2834375 212.26 -280.2834375 212.26 -280.0625 211.25 C-279.5 209.25 -279.5 209.25 -277.5 206.25 C-277.5 204.93 -277.5 203.61 -277.5 202.25 C-277.0937025 200.38374015 -276.63115099 198.52918799 -276.125 196.6875 C-275.86976563 195.73746094 -275.61453125 194.78742188 -275.3515625 193.80859375 C-274.2995796 190.64781943 -272.84830241 188.59830241 -270.5 186.25 C-270.520625 185.3425 -270.54125 184.435 -270.5625 183.5 C-270.48933887 179.69562111 -269.36787817 177.51878679 -267.5 174.25 C-266.84 174.25 -266.18 174.25 -265.5 174.25 C-265.40847656 173.25226563 -265.31695312 172.25453125 -265.22265625 171.2265625 C-264.60002935 166.91473589 -262.94327823 163.45687807 -260.9375 159.625 C-260.5854248 158.93857422 -260.23334961 158.25214844 -259.87060547 157.54492188 C-256.44094672 150.95632689 -252.88204056 144.25730443 -248.5 138.25 C-247.84 138.25 -247.18 138.25 -246.5 138.25 C-246.41621094 137.55390625 -246.33242187 136.8578125 -246.24609375 136.140625 C-245.3141518 132.52995984 -243.65800675 130.07694662 -241.5625 127 C-240.85222656 125.94296875 -240.14195312 124.8859375 -239.41015625 123.796875 C-237.5 121.25 -237.5 121.25 -235.5 120.25 C-235.231875 119.46625 -234.96375 118.6825 -234.6875 117.875 C-233.20652498 114.60126575 -231.52851014 114.03604444 -228.5 112.25 C-228.14587656 110.92203709 -227.81478446 109.58783393 -227.5 108.25 C-225.36107381 105.94221121 -223.11941659 103.82353388 -220.8125 101.6875 C-219.37964725 100.26649729 -219.37964725 100.26649729 -218.5625 98.1875 C-217.5 96.25 -217.5 96.25 -215.72705078 95.40576172 C-212.90813303 93.94284167 -211.05288315 92.06220185 -208.8046875 89.8203125 C-207.92425781 88.94246094 -207.04382813 88.06460938 -206.13671875 87.16015625 C-205.22535156 86.24105469 -204.31398438 85.32195312 -203.375 84.375 C-202.45589844 83.46363281 -201.53679687 82.55226563 -200.58984375 81.61328125 C-199.71199219 80.73285156 -198.83414063 79.85242188 -197.9296875 78.9453125 C-196.72675049 77.7389917 -196.72675049 77.7389917 -195.49951172 76.50830078 C-193.43884909 74.40020248 -193.43884909 74.40020248 -192.47314453 72.01904297 C-191.5 70.25 -191.5 70.25 -189.61157227 69.67724609 C-188.91475342 69.53625488 -188.21793457 69.39526367 -187.5 69.25 C-185.57240886 68.00027692 -185.57240886 68.00027692 -183.71484375 66.4140625 C-183.01939453 65.84429687 -182.32394531 65.27453125 -181.60742188 64.6875 C-180.89134766 64.089375 -180.17527344 63.49125 -179.4375 62.875 C-178.71755859 62.28460938 -177.99761719 61.69421875 -177.25585938 61.0859375 C-173.50108041 58.03319476 -173.50108041 58.03319476 -170.02172852 54.68115234 C-168.29695639 53.05904193 -166.63654973 52.25562795 -164.5 51.25 C-163.12085559 50.40650164 -161.75300552 49.54436845 -160.39453125 48.66796875 C-139.77900617 35.5291284 -118.58914249 24.37253851 -95.5 16.25 C-94.58653809 15.92805664 -93.67307617 15.60611328 -92.73193359 15.27441406 C-71.46414112 7.89956642 -49.85383275 3.64979854 -27.5 1.25 C-26.66339844 1.15428711 -25.82679688 1.05857422 -24.96484375 0.95996094 C-16.65485937 0.09096332 -8.34630912 0.00666043 0 0 Z M266.5 171.25 C267.5 173.25 267.5 173.25 267.5 173.25 Z M-267.5 176.25 C-266.5 178.25 -266.5 178.25 -266.5 178.25 Z M268.5 176.25 C269.5 178.25 269.5 178.25 269.5 178.25 Z M-269.5 181.25 C-268.5 183.25 -268.5 183.25 -268.5 183.25 Z M270.5 181.25 C271.5 183.25 271.5 183.25 271.5 183.25 Z M-275.5 197.25 C-274.5 199.25 -274.5 199.25 -274.5 199.25 Z M276.5 197.25 C277.5 199.25 277.5 199.25 277.5 199.25 Z M-275.5 382.25 C-274.5 384.25 -274.5 384.25 -274.5 384.25 Z M276.5 382.25 C277.5 384.25 277.5 384.25 277.5 384.25 Z M-269.5 398.25 C-268.5 400.25 -268.5 400.25 -268.5 400.25 Z M270.5 398.25 C271.5 400.25 271.5 400.25 271.5 400.25 Z M-267.5 403.25 C-266.5 405.25 -266.5 405.25 -266.5 405.25 Z M268.5 403.25 C269.5 405.25 269.5 405.25 269.5 405.25 Z M-265.5 408.25 C-264.5 410.25 -264.5 410.25 -264.5 410.25 Z M263.5 414.25 C264.5 416.25 264.5 416.25 264.5 416.25 Z M259.5 422.25 C260.5 424.25 260.5 424.25 260.5 424.25 Z " fill="#FBC500" transform="translate(289.5,-0.25)"/>
<path d="M0 0 C24.09773537 20.45034205 41.01070513 44.42674808 52.75 73.7578125 C53.11774536 74.67457764 53.11774536 74.67457764 53.49291992 75.60986328 C54.01953125 77.5625 54.01953125 77.5625 54.01953125 82.5625 C-56.20046875 82.5625 -166.42046875 82.5625 -279.98046875 82.5625 C-278.89110858 76.026339 -276.77391795 71.59853962 -273.73046875 65.8125 C-273.19832764 64.79768555 -272.66618652 63.78287109 -272.11791992 62.73730469 C-266.89570829 53.02007306 -260.7448047 44.25226491 -253.98046875 35.5625 C-253.24699219 34.58667969 -252.51351562 33.61085938 -251.7578125 32.60546875 C-237.14637747 13.82738173 -218.62418161 -1.71606982 -197.98046875 -13.4375 C-197.40651367 -13.77088379 -196.83255859 -14.10426758 -196.24121094 -14.44775391 C-187.1790418 -19.68689727 -177.98526757 -23.5458465 -168.03173828 -26.76660156 C-166.63722729 -27.22269728 -165.24761966 -27.69400563 -163.86279297 -28.17871094 C-157.94418909 -30.23540933 -151.96944137 -31.70755668 -145.85546875 -33.0625 C-144.90542969 -33.2790625 -143.95539063 -33.495625 -142.9765625 -33.71875 C-95.12893126 -44.46953538 -38.20522421 -30.75640691 0 0 Z " fill="#030200" transform="translate(402.98046875,149.4375)"/>
<path d="M0 0 C100.65 0 201.3 0 305 0 C298.19183596 20.42449213 288.5791509 39.22575477 275 56 C273.83791016 57.44826172 273.83791016 57.44826172 272.65234375 58.92578125 C270.45599484 61.63546714 268.2333673 64.32080843 266 67 C265.46632813 67.65871094 264.93265625 68.31742187 264.3828125 68.99609375 C260.65932076 73.5146013 256.48282402 77.24730319 252 81 C251.23300781 81.67804688 250.46601563 82.35609375 249.67578125 83.0546875 C218.92402256 109.52097905 180.87380521 119.2081483 141 117 C132.1089163 116.182753 123.63773911 114.67210671 115.20556641 111.73168945 C113.11396455 111.03780737 111.03718182 110.4799052 108.89453125 109.96875 C71.97854091 101.07464816 38.63858242 73.74148748 18.75244141 42.00927734 C13.13716547 32.67482231 8.45600808 22.92789365 4 13 C3.56429687 12.07703125 3.12859375 11.1540625 2.6796875 10.203125 C2.31101563 9.41421875 1.94234375 8.6253125 1.5625 7.8125 C1.25441406 7.15894531 0.94632813 6.50539063 0.62890625 5.83203125 C0 4 0 4 0 0 Z " fill="#040300" transform="translate(140,348)"/>
<path d="M0 0 C5.61 0 11.22 0 17 0 C17.66 2.31 18.32 4.62 19 7 C20.0595843 10.14923087 21.22036375 13.25947287 22.375 16.375 C22.66632812 17.17421875 22.95765625 17.9734375 23.2578125 18.796875 C25.29008996 24.30541654 27.5752133 29.65455419 30 35 C30.31743164 35.72936768 30.63486328 36.45873535 30.96191406 37.21020508 C39.61563585 57.0914978 50.56438515 75.97836695 64 93 C64.68320313 93.8765625 65.36640625 94.753125 66.0703125 95.65625 C83.50808089 117.533893 104.16686315 135.41879574 128 150 C129.27217418 150.79160437 130.5443086 151.58327264 131.81640625 152.375 C139.0110525 156.81426912 140.78168838 168.46001642 147.6640625 174.97265625 C148.3446875 175.61074219 149.0253125 176.24882813 149.7265625 176.90625 C154.85330137 181.85497711 159.23012295 187.40724887 163.6640625 192.97265625 C164.55312608 194.07052257 165.44245656 195.16817278 166.33203125 196.265625 C175.61773285 207.80065805 183.58535613 219.89416211 190.9765625 232.72265625 C191.71410767 233.99894897 191.71410767 233.99894897 192.46655273 235.30102539 C195.91105705 241.3729819 198.8553949 247.5850626 201.6640625 253.97265625 C202.21912476 255.20121338 202.21912476 255.20121338 202.78540039 256.45458984 C207.3123772 266.47824767 211.38176173 276.55193362 214.7265625 287.03515625 C215.02546387 287.96884033 215.32436523 288.90252441 215.63232422 289.86450195 C216.85641785 293.82542894 217.6640625 296.77543866 217.6640625 300.97265625 C213.0440625 300.97265625 208.4240625 300.97265625 203.6640625 300.97265625 C203.3959375 299.9775 203.1278125 298.98234375 202.8515625 297.95703125 C192.443874 260.4109417 173.64071498 225.03692507 147.6640625 195.97265625 C147.19581055 195.44800781 146.72755859 194.92335938 146.24511719 194.3828125 C137.31459148 184.42348049 128.16663531 175.29125035 117.6640625 166.97265625 C116.72175781 166.20179687 115.77945312 165.4309375 114.80859375 164.63671875 C100.25376395 153.00038652 84.26781707 144.00377567 67.5390625 135.91015625 C66.8806134 135.59059967 66.22216431 135.27104309 65.54376221 134.94180298 C54.52378339 129.61893685 43.41970833 125.3813046 31.6640625 121.97265625 C30.00630558 121.47333581 28.34875479 120.97333051 26.69140625 120.47265625 C15.75329843 117.22464058 4.95432861 114.61619363 -6.3359375 112.97265625 C-7.62113281 112.77929688 -8.90632813 112.5859375 -10.23046875 112.38671875 C-35.48791914 108.7970914 -60.57455486 108.6259006 -85.65917969 113.45996094 C-88.02938808 113.91394102 -90.40112948 114.33250295 -92.78125 114.73046875 C-152.33308453 125.03068665 -210.58293954 156.42978789 -247.10839844 205.33935547 C-248.25023421 206.85862384 -249.42091426 208.35609547 -250.59375 209.8515625 C-266.92576171 230.89585716 -281.8082494 256.01739029 -288.75390625 281.91796875 C-289.35294097 284.03268191 -290.12671529 286.00297513 -290.9609375 288.03515625 C-292.62679664 292.30010452 -292.98047923 296.42279038 -293.3359375 300.97265625 C-297.9559375 300.97265625 -302.5759375 300.97265625 -307.3359375 300.97265625 C-307.77107375 293.52190225 -306.35523184 287.93000522 -303.7734375 280.97265625 C-303.40992188 279.96517334 -303.04640625 278.95769043 -302.671875 277.91967773 C-291.29421103 246.70295554 -276.14812184 217.27182243 -254.3359375 191.97265625 C-253.40236177 190.85654155 -252.47015213 189.73928325 -251.5390625 188.62109375 C-241.72665501 176.90536213 -231.37316187 166.42350403 -219.3359375 156.97265625 C-218.26700408 156.10306626 -217.19934617 155.23190657 -216.1328125 154.359375 C-179.71035759 124.79973287 -135.03156776 106.61536094 -88.8359375 99.6640625 C-85.29934595 99.13108115 -81.78890153 98.50680576 -78.2734375 97.84765625 C-52.84638619 93.63904086 -25.09459679 94.65897738 0 0 Z " fill="#040300" transform="translate(27,348)"/>
</svg>